<svg xmlns="http://www.w3.org/2000/svg" version="1.1" xmlns:xlink="http://www.w3.org/1999/xlink" xmlns:svgjs="http://svgjs.dev/svgjs" width="2000" height="375" viewBox="0 0 2000 375"><g transform="matrix(1,0,0,1,-2.462184873949809,-1.8694029850746574)"><svg viewBox="0 0 357 67" data-background-color="#233326" preserveAspectRatio="xMidYMid meet" height="375" width="2000" xmlns="http://www.w3.org/2000/svg" xmlns:xlink="http://www.w3.org/1999/xlink"><g id="tight-bounds" transform="matrix(1,0,0,1,0.43950000000003797,0.3340000000000032)"><svg viewBox="0 0 356.12052 66.33160316219168" height="66.33160316219168" width="356.12052"><g><svg viewBox="0 0 356.12052 66.33160316219168" height="66.33160316219168" width="356.12052"><g><svg viewBox="0 0 356.12052 66.33160316219168" height="66.33160316219168" width="356.12052"><g><path d="M0 66.332v-66.332h356.121v66.332z" fill="#424242" stroke="transparent" stroke-width="0" rx="0%" data-fill-palette-color="tertiary"></path><path d="M3.283 63.048v-59.765h349.554v59.765z" fill="#ccccb0" stroke="transparent" stroke-width="0" rx="0%" data-fill-palette-color="quaternary"></path><path d="M9.85 56.482v-46.632h336.421v46.632z" fill="#424242" stroke="transparent" stroke-width="0" data-fill-palette-color="tertiary"></path></g><g transform="matrix(1,0,0,1,19.69974,19.69974)" id="textblocktransform"><svg viewBox="0 0 316.72104 26.93212316219169" height="26.93212316219169" width="316.72104" id="textblock"><g><svg viewBox="0 0 316.72104 26.93212316219169" height="26.93212316219169" width="316.72104"><g transform="matrix(1,0,0,1,0,0)"><svg width="316.72104" viewBox="0.1 -35.45 424.59999999999997 36.11" height="26.93212316219169" data-palette-color="#ccccb0"><path d="M26 0L12.84 0Q12.01 0 12.01-0.49L12.01-0.49 12.01-0.73Q12.01-1.12 12.73-1.21 13.45-1.29 13.67-1.32L13.67-1.32Q15.53-1.51 16.28-2.23 17.04-2.95 17.04-4.39L17.04-4.39 17.04-12.48Q17.04-12.65 16.97-12.84L16.97-12.84 6.98-28.76Q4.64-32.5 2.34-33.06L2.34-33.06Q2.22-33.08 1.9-33.15 1.59-33.23 0.49-33.4L0.49-33.4Q0.1-33.47 0.1-33.95 0.1-34.42 0.46-34.42L0.46-34.42 14.43-34.42Q14.84-34.42 14.84-33.94 14.84-33.45 14.43-33.45L14.43-33.45Q12.79-33.28 12.26-33.11L12.26-33.11Q11.04-32.67 11.04-31.54L11.04-31.54Q11.04-30.96 11.33-30.49L11.33-30.49 19.58-17.31Q19.85-16.92 19.91-16.81 19.97-16.7 20.18-16.7 20.39-16.7 20.83-17.41L20.83-17.41 27.42-28.61Q27.71-29.2 28.09-29.87 28.47-30.54 28.47-31.25L28.47-31.25Q28.47-33.03 26.03-33.35L26.03-33.35Q25.15-33.47 25.07-33.62 25-33.76 25-33.98L25-33.98Q25-34.42 25.42-34.42L25.42-34.42 36.82-34.42Q37.16-34.42 37.16-34.08 37.16-33.74 37.05-33.62 36.94-33.5 36.76-33.44 36.57-33.37 36.35-33.34 36.13-33.3 35.4-33.13L35.4-33.13Q33.69-32.71 31.69-30.42L31.69-30.42Q31.47-30.15 31.45-30.1L31.45-30.1 21.8-13.5 21.8-4.39Q21.8-3.08 22.55-2.32 23.29-1.56 25.06-1.33 26.83-1.1 26.83-0.76L26.83-0.76 26.83-0.49Q26.83 0 26 0L26 0ZM55.34 0L37.72 0Q37.52 0 37.52-0.2L37.52-0.2 37.52-0.78Q37.52-0.98 37.86-0.98L37.86-0.98Q39.01-0.98 40.4-1.22L40.4-1.22Q44.87-1.98 44.87-4.3L44.87-4.3 44.87-30.05Q44.63-33.18 42.01-33.45L42.01-33.45Q41.23-33.54 40.28-33.54L40.28-33.54 38.89-33.54Q38.69-33.54 38.69-33.74L38.69-33.74 38.69-34.35Q38.69-34.55 38.89-34.55L38.89-34.55 39.96-34.57 44.16-34.59 52.85-34.86Q66.82-34.86 66.82-26.61L66.82-26.61Q66.82-23.12 63.21-20.8L63.21-20.8Q62.64-20.43 62.24-20.26 61.84-20.09 61.79-20.07L61.79-20.07Q65.01-18.26 66.86-16.02 68.7-13.77 68.7-10.64L68.7-10.64Q68.7-3.98 62.4-1.37L62.4-1.37Q59.15 0 55.34 0L55.34 0ZM53.95-19.04L50.07-19.04Q49.75-19.04 49.75-18.77L49.75-18.77 49.75-5.4Q49.75-3.66 51.38-2.61 53-1.56 54.88-1.56L54.88-1.56Q58.49-1.56 61.03-4.14 63.57-6.71 63.57-10.49 63.57-14.26 60.85-16.65 58.13-19.04 53.95-19.04L53.95-19.04ZM49.7-32.2L49.7-21.02Q49.7-20.56 50.27-20.56L50.27-20.56 56.27-20.56Q58.62-20.56 60.21-22.29 61.81-24.02 61.81-26.17L61.81-26.17Q61.81-30 59.64-31.73 57.47-33.45 53.85-33.45L53.85-33.45Q52.76-33.37 52.33-33.37 51.9-33.37 51.44-33.39 50.97-33.4 50.51-33.33 50.05-33.25 49.88-33.01 49.7-32.76 49.7-32.2L49.7-32.2ZM77.85-19.87L76.02-19.87Q75.9-21.56 75.15-26.53 74.41-31.49 74.41-32.35 74.41-33.2 75.24-33.81 76.07-34.42 77-34.42 77.92-34.42 78.72-33.81 79.51-33.2 79.51-32.4 79.51-31.59 79.32-30.08 79.12-28.56 78.85-26.78 78.58-25 78.3-23.17 78.02-21.34 77.85-19.87L77.85-19.87ZM101.85-33.96L103.22-34.13Q103.46-34.13 103.46-33.59L103.46-33.59 104.09-28.39Q104.19-27.91 104.19-27.77 104.19-27.64 103.81-27.64 103.43-27.64 103.34-27.73 103.24-27.83 103.14-28.06 103.04-28.3 102.91-28.59 102.78-28.88 102.63-29.17L102.63-29.17Q102.12-30.3 101.02-31.4L101.02-31.4Q98.33-33.98 94.96-33.98L94.96-33.98Q92.94-33.98 91.13-32.67 89.32-31.35 89.32-29.55 89.32-27.76 89.99-26.44 90.67-25.12 91.76-24 92.86-22.88 94.28-21.85 95.7-20.83 97.16-19.78L97.16-19.78Q101.04-17.07 102.68-15.14L102.68-15.14Q105.24-12.16 105.46-8.45L105.46-8.45Q105.46-4.3 102.28-1.82 99.09 0.66 94.87 0.66L94.87 0.66Q92.16 0.66 90.56 0.11 88.96-0.44 88.35-0.68 87.74-0.93 87.46-0.93 87.18-0.93 87.1-0.9L87.1-0.9 85.91-0.66Q85.59-0.66 85.51-1.17L85.51-1.17Q84.81-7.23 84.81-7.6 84.81-7.98 84.87-8.12 84.93-8.25 85.2-8.25L85.2-8.25Q85.88-8.25 86.44-6.3L86.44-6.3Q89.01-0.81 94.96-0.81L94.96-0.81Q97.7-0.81 99.64-2.47 101.58-4.13 101.58-6.79L101.58-6.79Q101.58-11.04 96.5-14.7L96.5-14.7Q95.06-15.72 92.35-17.55 89.64-19.38 88.03-21.22L88.03-21.22Q85.51-24.05 85.51-27.53 85.51-31.01 88.29-33.23 91.06-35.45 94.65-35.45L94.65-35.45Q96.5-35.45 98.74-34.81 100.97-34.18 101.85-33.96L101.85-33.96ZM138.12 0L123.52 0Q123.33 0 123.33-0.49L123.33-0.49 123.33-0.78Q123.33-0.98 123.57-0.98 123.82-0.98 124.29-1.12 124.77-1.27 125.01-1.32L125.01-1.32Q127.5-1.88 127.5-4.15L127.5-4.15 127.5-29.93Q127.5-32.18 126.67-32.8 125.84-33.42 123.67-33.42L123.67-33.42 122.57-33.42Q122.06-33.42 122.06-34.01L122.06-34.01Q122.06-34.35 122.38-34.42L122.38-34.42 122.55-34.42 136.24-34.79 138.71-34.79Q143.08-34.5 145.98-31.64 148.89-28.78 148.89-24.79 148.89-20.8 146.03-17.55L146.03-17.55Q144.79-16.11 143.22-15.22 141.66-14.33 140.15-14.31L140.15-14.31 132.82-14.6 132.63-14.6Q132.26-14.6 132.26-14.26L132.26-14.26 132.26-4.22Q132.26-2.88 133-2.25 133.73-1.61 136.1-1.25L136.1-1.25Q136.41-1.2 137.12-1.09 137.83-0.98 138.07-0.98 138.32-0.98 138.32-0.78L138.32-0.78 138.32-0.2Q138.32 0 138.12 0L138.12 0ZM134.24-33.56Q133.95-33.54 133.62-33.53 133.29-33.52 132.78-33.51 132.26-33.5 132.26-33.11L132.26-33.11 132.26-17.36 132.31-16.63Q132.38-16.11 132.78-16.09L132.78-16.09 135.27-15.94Q139.2-15.94 141.6-18.58 144.01-21.22 144.01-25.21 144.01-29.2 141.67-31.4 139.34-33.59 135.46-33.59L135.46-33.59Q135.12-33.59 134.83-33.58 134.53-33.57 134.24-33.56ZM181.94-2.1Q179.82-0.81 177.3-0.07 174.79 0.66 172.84 0.66L172.84 0.66Q168.83 0.66 165.19-0.63L165.19-0.63Q160.21-2.44 157.19-5.98L157.19-5.98Q153.33-10.5 153.33-17.43L153.33-17.43Q153.33-22.44 155.89-26.55 158.46-30.66 162.99-33.06 167.51-35.45 172.73-35.45 177.94-35.45 182.07-33.13 186.19-30.81 188.68-26.76 191.17-22.71 191.17-17.98 191.17-13.26 188.71-9 186.24-4.74 181.94-2.1L181.94-2.1ZM158.46-18.21Q158.46-14.16 160.25-10.17 162.05-6.18 165.39-3.66 168.74-1.15 173.13-1.15L173.13-1.15Q179.38-1.15 182.87-5.93L182.87-5.93Q186.02-10.25 186.02-16.97 186.02-23.68 182.16-28.54L182.16-28.54Q180.28-30.91 177.56-32.34 174.84-33.76 172.07-33.76 169.3-33.76 167.53-33.15 165.76-32.54 164.32-31.48 162.88-30.42 161.78-28.96 160.68-27.49 159.95-25.78L159.95-25.78Q158.46-22.27 158.46-18.21ZM210.14 0L195.12 0Q194.93 0 194.93-0.49L194.93-0.49 194.93-0.78Q194.93-0.98 195.12-0.98L195.12-0.98Q195.27-0.98 195.59-1.03 195.91-1.07 196.25-1.12 196.59-1.17 196.88-1.23 197.17-1.29 197.3-1.32L197.3-1.32Q199.79-1.88 199.79-4.15L199.79-4.15 199.79-29.93Q199.79-32.03 198.1-32.91L198.1-32.91Q197.1-33.45 195.95-33.45L195.95-33.45 195.03-33.45Q194.83-33.45 194.83-33.64L194.83-33.64 194.83-34.23Q194.83-34.42 195.12-34.42L195.12-34.42 208.53-34.79 210.99-34.79Q215.31-34.5 218.23-31.65 221.15-28.81 221.15-24.65 221.15-20.48 217.68-18.16L217.68-18.16Q216.61-17.46 215.36-16.89L215.36-16.89 222.76-4.81Q224.69-1.64 227.94-0.34L227.94-0.34Q228.21-0.27 228.21 0L228.21 0Q228.21 0.61 227.4 0.61L227.4 0.61Q221.91 0.61 218.66-3.56L218.66-3.56Q217.95-4.49 217.24-5.64L217.24-5.64 210.92-15.55 205.11-15.82 204.91-15.82Q204.55-15.82 204.55-15.48L204.55-15.48 204.55-4.22Q204.55-2.88 205.3-2.22 206.06-1.56 207.92-1.32L207.92-1.32Q208.41-1.25 209.11-1.11 209.82-0.98 210.08-0.98 210.33-0.98 210.33-0.78L210.33-0.78 210.33-0.2Q210.33 0 210.14 0L210.14 0ZM206.53-33.51Q206.23-33.5 205.9-33.48 205.57-33.47 205.06-33.46 204.55-33.45 204.55-33.06L204.55-33.06 204.55-18.26 204.6-17.53Q204.67-17.02 205.06-16.99L205.06-16.99 207.55-16.85Q214.41-16.85 215.83-21.73L215.83-21.73Q216.29-23.27 216.29-25.24L216.29-25.24Q216.29-29.1 213.89-31.32 211.48-33.54 207.75-33.54L207.75-33.54Q207.4-33.54 207.11-33.53 206.82-33.52 206.53-33.51ZM238.24-0.2L238.24-0.78Q238.24-0.98 238.46-0.98L238.46-0.98 239.14-0.98Q241.53-0.98 242.99-2 244.44-3.03 244.44-4.39L244.44-4.39 244.44-31.42Q244.44-31.93 244.23-31.99 244.02-32.06 243.73-32.1L243.73-32.1 234.36-32.1Q232.08-31.62 231.38-28.61L231.38-28.61Q230.99-27 230.91-26.55 230.84-26.1 230.64-26.1L230.64-26.1 230.2-26.1Q230.06-26.1 230.06-26.2L230.06-26.2 230.06-27 230.96-34.62Q231.11-35.38 231.45-35.38 231.79-35.38 232.18-34.9 232.57-34.42 233.67-34.42L233.67-34.42 259.99-34.42Q261.04-34.42 261.26-34.67 261.48-34.91 261.67-35.14 261.87-35.38 262.17-35.38 262.48-35.38 262.57-35.13 262.65-34.89 262.7-34.62L262.7-34.62 263.6-27 263.6-26.2Q263.6-26.1 263.46-26.1L263.46-26.1 263.02-26.1Q262.82-26.1 262.75-26.46L262.75-26.46Q262.36-28.91 261.63-30.33 260.89-31.76 259.31-32.1L259.31-32.1 249.91-32.1Q249.61-32.06 249.41-31.99 249.2-31.93 249.2-31.42L249.2-31.42 249.2-4.39Q249.2-3.03 250.65-2 252.1-0.98 254.5-0.98L254.5-0.98 255.2-0.98Q255.4-0.98 255.4-0.78L255.4-0.78 255.4-0.2Q255.4 0 255.2 0L255.2 0 238.43 0Q238.24 0 238.24-0.2L238.24-0.2ZM276.54-19.75L286.11-19.75Q289.38-19.75 289.38-22.95L289.38-22.95Q289.38-23.14 289.58-23.14L289.58-23.14 290.16-23.14Q290.36-23.14 290.36-22.95L290.36-22.95 290.36-13.87Q290.36-13.67 290.16-13.67L290.16-13.67 289.58-13.67Q289.38-13.67 289.38-13.87L289.38-13.87Q289.38-16.11 288.11-16.97L288.11-16.97Q287.43-17.43 286.16-17.43L286.16-17.43 276.54-17.43Q275.95-17.43 275.95-16.77L275.95-16.77 275.95-4.22Q275.95-2.56 277.94-1.77 279.93-0.98 280.46-0.98 280.98-0.98 280.98-0.78L280.98-0.78 280.98-0.2Q280.98 0 280.79 0L280.79 0 267.46 0Q267.26 0 267.26-0.2L267.26-0.2 267.26-0.78Q267.26-0.98 267.68-0.98 268.09-0.98 268.97-1.37 269.85-1.76 270.52-2.53 271.19-3.3 271.19-4.39L271.19-4.39 271.19-30.76Q271.19-32.35 269.51-33.03L269.51-33.03Q268.53-33.45 267.58-33.45L267.58-33.45 267.48-33.45Q267.29-33.45 267.29-33.64L267.29-33.64 267.29-34.23Q267.29-34.42 267.48-34.42L267.48-34.42 290.5-34.42Q290.8-34.38 290.94-34.29 291.09-34.2 291.09-33.86L291.09-33.86 291.09-27.95Q291.09-27.66 291.01-27.59 290.92-27.51 290.7-27.51L290.7-27.51 290.41-27.51Q290.36-27.54 290.08-28.85 289.8-30.15 289.21-30.86L289.21-30.86Q288.21-31.93 286.94-32.06L286.94-32.06Q286.43-32.1 285.7-32.1L285.7-32.1 276.44-32.1Q275.95-32.1 275.95-31.62L275.95-31.62 275.95-20.31Q275.95-19.75 276.54-19.75L276.54-19.75ZM324.95-2.1Q322.83-0.81 320.31-0.07 317.8 0.66 315.84 0.66L315.84 0.66Q311.84 0.66 308.2-0.63L308.2-0.63Q303.22-2.44 300.19-5.98L300.19-5.98Q296.34-10.5 296.34-17.43L296.34-17.43Q296.34-22.44 298.9-26.55 301.46-30.66 305.99-33.06 310.52-35.45 315.73-35.45 320.95-35.45 325.07-33.13 329.2-30.81 331.69-26.76 334.18-22.71 334.18-17.98 334.18-13.26 331.71-9 329.25-4.74 324.95-2.1L324.95-2.1ZM301.46-18.21Q301.46-14.16 303.26-10.17 305.05-6.18 308.4-3.66 311.74-1.15 316.14-1.15L316.14-1.15Q322.39-1.15 325.88-5.93L325.88-5.93Q329.03-10.25 329.03-16.97 329.03-23.68 325.17-28.54L325.17-28.54Q323.29-30.91 320.57-32.34 317.85-33.76 315.08-33.76 312.3-33.76 310.53-33.15 308.76-32.54 307.32-31.48 305.88-30.42 304.78-28.96 303.69-27.49 302.95-25.78L302.95-25.78Q301.46-22.27 301.46-18.21ZM362.67 0L338.03 0Q337.84 0 337.84-0.2L337.84-0.2 337.84-0.78Q337.84-0.98 338.03-0.98L338.03-0.98 338.62-0.98Q340.72-0.98 342.28-1.86L342.28-1.86Q342.92-2.22 343.33-2.99 343.75-3.76 343.75-4.71L343.75-4.71 343.75-30.54Q343.75-32.06 341.79-32.86L341.79-32.86Q340.43-33.45 338.89-33.45L338.89-33.45 338.35-33.45Q338.16-33.45 338.16-33.64L338.16-33.64 338.16-34.23Q338.16-34.42 338.35-34.42L338.35-34.42 354.88-34.42Q355.08-34.42 355.08-34.23L355.08-34.23 355.08-33.64Q355.08-33.45 354.88-33.45L354.88-33.45 353.83-33.45Q351.32-33.45 349.39-32.74L349.39-32.74Q348.83-32.54 348.67-32.09 348.51-31.64 348.51-30.54L348.51-30.54 348.51-3.47Q348.56-3.05 348.95-2.69 349.34-2.32 349.83-2.32L349.83-2.32 359.47-2.32Q361.64-2.32 363.74-4.88L363.74-4.88Q364.3-5.57 365.13-6.7 365.96-7.84 366.16-7.98L366.16-7.98Q366.94-8.57 366.94-7.96L366.94-7.96Q366.94-7.81 366.87-7.67L366.87-7.67 363.18-0.44Q362.96 0 362.67 0L362.67 0ZM373.26-4.47L373.26-30.52Q373.26-33.45 369.89-33.45L369.89-33.45Q369.35-33.45 369.35-33.64L369.35-33.64 369.35-34.23Q369.35-34.42 369.55-34.42L369.55-34.42 381.78-34.42Q381.98-34.42 381.98-34.23L381.98-34.23 381.98-33.64Q381.98-33.45 380.9-33.45 379.83-33.45 378.93-32.76 378.02-32.08 378.02-29.96L378.02-29.96 378.02-3.91Q378.02-0.98 381.42-0.98L381.42-0.98Q381.93-0.98 381.93-0.78L381.93-0.78 381.93-0.2Q381.93 0 381.73 0L381.73 0 369.5 0Q369.31 0 369.31-0.2L369.31-0.2 369.31-0.78Q369.31-0.98 370.38-0.98 371.45-0.98 372.36-1.66 373.26-2.34 373.26-4.47L373.26-4.47ZM415.47-2.1Q413.35-0.81 410.83-0.07 408.32 0.66 406.36 0.66L406.36 0.66Q402.36 0.66 398.72-0.63L398.72-0.63Q393.74-2.44 390.71-5.98L390.71-5.98Q386.86-10.5 386.86-17.43L386.86-17.43Q386.86-22.44 389.42-26.55 391.98-30.66 396.51-33.06 401.04-35.45 406.25-35.45 411.47-35.45 415.59-33.13 419.72-30.81 422.21-26.76 424.7-22.71 424.7-17.98 424.7-13.26 422.23-9 419.77-4.74 415.47-2.1L415.47-2.1ZM391.98-18.21Q391.98-14.16 393.78-10.17 395.57-6.18 398.92-3.66 402.26-1.15 406.66-1.15L406.66-1.15Q412.91-1.15 416.4-5.93L416.4-5.93Q419.55-10.25 419.55-16.97 419.55-23.68 415.69-28.54L415.69-28.54Q413.81-30.91 411.09-32.34 408.37-33.76 405.59-33.76 402.82-33.76 401.05-33.15 399.28-32.54 397.84-31.48 396.4-30.42 395.3-28.96 394.21-27.49 393.47-25.78L393.47-25.78Q391.98-22.27 391.98-18.21Z" opacity="1" transform="matrix(1,0,0,1,0,0)" fill="#ccccb0" class="wordmark-text-0" data-fill-palette-color="quaternary" id="text-0"></path></svg></g></svg></g></svg></g></svg></g><g></g></svg></g><defs></defs></svg><rect width="356.12052" height="66.33160316219168" fill="none" stroke="none" visibility="hidden"></rect></g></svg></g></svg>